<mxfile host="65bd71144e">
    <diagram id="R2lEEEUBdFMjLlhIrx00" name="Page-1">
        <mxGraphModel dx="1760" dy="1144" grid="1" gridSize="10" guides="1" tooltips="1" connect="1" arrows="1" fold="1" page="1" pageScale="1" pageWidth="850" pageHeight="1100" math="0" shadow="0" extFonts="Permanent Marker^https://fonts.googleapis.com/css?family=Permanent+Marker">
            <root>
                <mxCell id="0"/>
                <mxCell id="1" parent="0"/>
                <mxCell id="Ojdv8ZBGMiVeSCYMn6bP-1" value="PRATO" style="shape=table;startSize=40;container=1;collapsible=1;childLayout=tableLayout;fixedRows=1;rowLines=0;fontStyle=1;align=center;resizeLast=1;fillColor=#B2C9AB;strokeColor=#788AA3;fontColor=#46495D;rounded=1;" parent="1" vertex="1">
                    <mxGeometry x="405" y="320" width="200" height="340" as="geometry"/>
                </mxCell>
                <mxCell id="Ojdv8ZBGMiVeSCYMn6bP-2" value="" style="shape=partialRectangle;collapsible=0;dropTarget=0;pointerEvents=0;fillColor=none;points=[[0,0.5],[1,0.5]];portConstraint=eastwest;top=0;left=0;right=0;bottom=1;strokeColor=#788AA3;fontColor=#46495D;rounded=1;" parent="Ojdv8ZBGMiVeSCYMn6bP-1" vertex="1">
                    <mxGeometry y="40" width="200" height="30" as="geometry"/>
                </mxCell>
                <mxCell id="Ojdv8ZBGMiVeSCYMn6bP-3" value="PK" style="shape=partialRectangle;overflow=hidden;connectable=0;fillColor=none;top=0;left=0;bottom=0;right=0;fontStyle=1;strokeColor=#788AA3;fontColor=#46495D;rounded=1;" parent="Ojdv8ZBGMiVeSCYMn6bP-2" vertex="1">
                    <mxGeometry width="30" height="30" as="geometry">
                        <mxRectangle width="30" height="30" as="alternateBounds"/>
                    </mxGeometry>
                </mxCell>
                <mxCell id="Ojdv8ZBGMiVeSCYMn6bP-4" value="ID_PRATO" style="shape=partialRectangle;overflow=hidden;connectable=0;fillColor=none;top=0;left=0;bottom=0;right=0;align=left;spacingLeft=6;fontStyle=5;strokeColor=#788AA3;fontColor=#46495D;rounded=1;" parent="Ojdv8ZBGMiVeSCYMn6bP-2" vertex="1">
                    <mxGeometry x="30" width="170" height="30" as="geometry">
                        <mxRectangle width="170" height="30" as="alternateBounds"/>
                    </mxGeometry>
                </mxCell>
                <mxCell id="Ojdv8ZBGMiVeSCYMn6bP-5" value="" style="shape=partialRectangle;collapsible=0;dropTarget=0;pointerEvents=0;fillColor=none;points=[[0,0.5],[1,0.5]];portConstraint=eastwest;top=0;left=0;right=0;bottom=0;strokeColor=#788AA3;fontColor=#46495D;rounded=1;" parent="Ojdv8ZBGMiVeSCYMn6bP-1" vertex="1">
                    <mxGeometry y="70" width="200" height="30" as="geometry"/>
                </mxCell>
                <mxCell id="Ojdv8ZBGMiVeSCYMn6bP-6" value="" style="shape=partialRectangle;overflow=hidden;connectable=0;fillColor=none;top=0;left=0;bottom=0;right=0;strokeColor=#788AA3;fontColor=#46495D;rounded=1;" parent="Ojdv8ZBGMiVeSCYMn6bP-5" vertex="1">
                    <mxGeometry width="30" height="30" as="geometry">
                        <mxRectangle width="30" height="30" as="alternateBounds"/>
                    </mxGeometry>
                </mxCell>
                <mxCell id="Ojdv8ZBGMiVeSCYMn6bP-7" value="NOME" style="shape=partialRectangle;overflow=hidden;connectable=0;fillColor=none;top=0;left=0;bottom=0;right=0;align=left;spacingLeft=6;strokeColor=#788AA3;fontColor=#46495D;rounded=1;" parent="Ojdv8ZBGMiVeSCYMn6bP-5" vertex="1">
                    <mxGeometry x="30" width="170" height="30" as="geometry">
                        <mxRectangle width="170" height="30" as="alternateBounds"/>
                    </mxGeometry>
                </mxCell>
                <mxCell id="Ojdv8ZBGMiVeSCYMn6bP-8" value="" style="shape=partialRectangle;collapsible=0;dropTarget=0;pointerEvents=0;fillColor=none;points=[[0,0.5],[1,0.5]];portConstraint=eastwest;top=0;left=0;right=0;bottom=0;strokeColor=#788AA3;fontColor=#46495D;rounded=1;" parent="Ojdv8ZBGMiVeSCYMn6bP-1" vertex="1">
                    <mxGeometry y="100" width="200" height="30" as="geometry"/>
                </mxCell>
                <mxCell id="Ojdv8ZBGMiVeSCYMn6bP-9" value="" style="shape=partialRectangle;overflow=hidden;connectable=0;fillColor=none;top=0;left=0;bottom=0;right=0;strokeColor=#788AA3;fontColor=#46495D;rounded=1;" parent="Ojdv8ZBGMiVeSCYMn6bP-8" vertex="1">
                    <mxGeometry width="30" height="30" as="geometry">
                        <mxRectangle width="30" height="30" as="alternateBounds"/>
                    </mxGeometry>
                </mxCell>
                <mxCell id="Ojdv8ZBGMiVeSCYMn6bP-10" value="DESCRICAO" style="shape=partialRectangle;overflow=hidden;connectable=0;fillColor=none;top=0;left=0;bottom=0;right=0;align=left;spacingLeft=6;strokeColor=#788AA3;fontColor=#46495D;rounded=1;" parent="Ojdv8ZBGMiVeSCYMn6bP-8" vertex="1">
                    <mxGeometry x="30" width="170" height="30" as="geometry">
                        <mxRectangle width="170" height="30" as="alternateBounds"/>
                    </mxGeometry>
                </mxCell>
                <mxCell id="Ojdv8ZBGMiVeSCYMn6bP-11" value="" style="shape=partialRectangle;collapsible=0;dropTarget=0;pointerEvents=0;fillColor=none;points=[[0,0.5],[1,0.5]];portConstraint=eastwest;top=0;left=0;right=0;bottom=0;strokeColor=#788AA3;fontColor=#46495D;rounded=1;" parent="Ojdv8ZBGMiVeSCYMn6bP-1" vertex="1">
                    <mxGeometry y="130" width="200" height="30" as="geometry"/>
                </mxCell>
                <mxCell id="Ojdv8ZBGMiVeSCYMn6bP-12" value="" style="shape=partialRectangle;overflow=hidden;connectable=0;fillColor=none;top=0;left=0;bottom=0;right=0;strokeColor=#788AA3;fontColor=#46495D;rounded=1;" parent="Ojdv8ZBGMiVeSCYMn6bP-11" vertex="1">
                    <mxGeometry width="30" height="30" as="geometry">
                        <mxRectangle width="30" height="30" as="alternateBounds"/>
                    </mxGeometry>
                </mxCell>
                <mxCell id="Ojdv8ZBGMiVeSCYMn6bP-13" value="FOTO" style="shape=partialRectangle;overflow=hidden;connectable=0;fillColor=none;top=0;left=0;bottom=0;right=0;align=left;spacingLeft=6;strokeColor=#788AA3;fontColor=#46495D;rounded=1;" parent="Ojdv8ZBGMiVeSCYMn6bP-11" vertex="1">
                    <mxGeometry x="30" width="170" height="30" as="geometry">
                        <mxRectangle width="170" height="30" as="alternateBounds"/>
                    </mxGeometry>
                </mxCell>
                <mxCell id="Ojdv8ZBGMiVeSCYMn6bP-14" value="" style="shape=partialRectangle;collapsible=0;dropTarget=0;pointerEvents=0;fillColor=none;points=[[0,0.5],[1,0.5]];portConstraint=eastwest;top=0;left=0;right=0;bottom=0;strokeColor=#788AA3;fontColor=#46495D;rounded=1;" parent="Ojdv8ZBGMiVeSCYMn6bP-1" vertex="1">
                    <mxGeometry y="160" width="200" height="30" as="geometry"/>
                </mxCell>
                <mxCell id="Ojdv8ZBGMiVeSCYMn6bP-15" value="" style="shape=partialRectangle;overflow=hidden;connectable=0;fillColor=none;top=0;left=0;bottom=0;right=0;strokeColor=#788AA3;fontColor=#46495D;rounded=1;" parent="Ojdv8ZBGMiVeSCYMn6bP-14" vertex="1">
                    <mxGeometry width="30" height="30" as="geometry">
                        <mxRectangle width="30" height="30" as="alternateBounds"/>
                    </mxGeometry>
                </mxCell>
                <mxCell id="Ojdv8ZBGMiVeSCYMn6bP-16" value="PRECO" style="shape=partialRectangle;overflow=hidden;connectable=0;fillColor=none;top=0;left=0;bottom=0;right=0;align=left;spacingLeft=6;strokeColor=#788AA3;fontColor=#46495D;rounded=1;" parent="Ojdv8ZBGMiVeSCYMn6bP-14" vertex="1">
                    <mxGeometry x="30" width="170" height="30" as="geometry">
                        <mxRectangle width="170" height="30" as="alternateBounds"/>
                    </mxGeometry>
                </mxCell>
                <mxCell id="Ojdv8ZBGMiVeSCYMn6bP-17" value="" style="shape=partialRectangle;collapsible=0;dropTarget=0;pointerEvents=0;fillColor=none;points=[[0,0.5],[1,0.5]];portConstraint=eastwest;top=0;left=0;right=0;bottom=0;strokeColor=#788AA3;fontColor=#46495D;rounded=1;" parent="Ojdv8ZBGMiVeSCYMn6bP-1" vertex="1">
                    <mxGeometry y="190" width="200" height="30" as="geometry"/>
                </mxCell>
                <mxCell id="Ojdv8ZBGMiVeSCYMn6bP-18" value="FK" style="shape=partialRectangle;overflow=hidden;connectable=0;fillColor=none;top=0;left=0;bottom=0;right=0;strokeColor=#788AA3;fontColor=#46495D;rounded=1;" parent="Ojdv8ZBGMiVeSCYMn6bP-17" vertex="1">
                    <mxGeometry width="30" height="30" as="geometry">
                        <mxRectangle width="30" height="30" as="alternateBounds"/>
                    </mxGeometry>
                </mxCell>
                <mxCell id="Ojdv8ZBGMiVeSCYMn6bP-19" value="ID_RESTAURANTE" style="shape=partialRectangle;overflow=hidden;connectable=0;fillColor=none;top=0;left=0;bottom=0;right=0;align=left;spacingLeft=6;strokeColor=#788AA3;fontColor=#46495D;rounded=1;" parent="Ojdv8ZBGMiVeSCYMn6bP-17" vertex="1">
                    <mxGeometry x="30" width="170" height="30" as="geometry">
                        <mxRectangle width="170" height="30" as="alternateBounds"/>
                    </mxGeometry>
                </mxCell>
                <mxCell id="Ojdv8ZBGMiVeSCYMn6bP-20" value="" style="shape=partialRectangle;collapsible=0;dropTarget=0;pointerEvents=0;fillColor=none;points=[[0,0.5],[1,0.5]];portConstraint=eastwest;top=0;left=0;right=0;bottom=0;strokeColor=#788AA3;fontColor=#46495D;rounded=1;" parent="Ojdv8ZBGMiVeSCYMn6bP-1" vertex="1">
                    <mxGeometry y="220" width="200" height="30" as="geometry"/>
                </mxCell>
                <mxCell id="Ojdv8ZBGMiVeSCYMn6bP-21" value="FK" style="shape=partialRectangle;overflow=hidden;connectable=0;fillColor=none;top=0;left=0;bottom=0;right=0;strokeColor=#788AA3;fontColor=#46495D;rounded=1;" parent="Ojdv8ZBGMiVeSCYMn6bP-20" vertex="1">
                    <mxGeometry width="30" height="30" as="geometry">
                        <mxRectangle width="30" height="30" as="alternateBounds"/>
                    </mxGeometry>
                </mxCell>
                <mxCell id="Ojdv8ZBGMiVeSCYMn6bP-22" value="ID_ENTRADA" style="shape=partialRectangle;overflow=hidden;connectable=0;fillColor=none;top=0;left=0;bottom=0;right=0;align=left;spacingLeft=6;strokeColor=#788AA3;fontColor=#46495D;rounded=1;" parent="Ojdv8ZBGMiVeSCYMn6bP-20" vertex="1">
                    <mxGeometry x="30" width="170" height="30" as="geometry">
                        <mxRectangle width="170" height="30" as="alternateBounds"/>
                    </mxGeometry>
                </mxCell>
                <mxCell id="Ojdv8ZBGMiVeSCYMn6bP-23" value="" style="shape=partialRectangle;collapsible=0;dropTarget=0;pointerEvents=0;fillColor=none;points=[[0,0.5],[1,0.5]];portConstraint=eastwest;top=0;left=0;right=0;bottom=0;strokeColor=#788AA3;fontColor=#46495D;rounded=1;" parent="Ojdv8ZBGMiVeSCYMn6bP-1" vertex="1">
                    <mxGeometry y="250" width="200" height="30" as="geometry"/>
                </mxCell>
                <mxCell id="Ojdv8ZBGMiVeSCYMn6bP-24" value="FK" style="shape=partialRectangle;overflow=hidden;connectable=0;fillColor=none;top=0;left=0;bottom=0;right=0;strokeColor=#788AA3;fontColor=#46495D;rounded=1;" parent="Ojdv8ZBGMiVeSCYMn6bP-23" vertex="1">
                    <mxGeometry width="30" height="30" as="geometry">
                        <mxRectangle width="30" height="30" as="alternateBounds"/>
                    </mxGeometry>
                </mxCell>
                <mxCell id="Ojdv8ZBGMiVeSCYMn6bP-25" value="ID_PRINCIPAL" style="shape=partialRectangle;overflow=hidden;connectable=0;fillColor=none;top=0;left=0;bottom=0;right=0;align=left;spacingLeft=6;strokeColor=#788AA3;fontColor=#46495D;rounded=1;" parent="Ojdv8ZBGMiVeSCYMn6bP-23" vertex="1">
                    <mxGeometry x="30" width="170" height="30" as="geometry">
                        <mxRectangle width="170" height="30" as="alternateBounds"/>
                    </mxGeometry>
                </mxCell>
                <mxCell id="Ojdv8ZBGMiVeSCYMn6bP-26" value="" style="shape=partialRectangle;collapsible=0;dropTarget=0;pointerEvents=0;fillColor=none;points=[[0,0.5],[1,0.5]];portConstraint=eastwest;top=0;left=0;right=0;bottom=0;strokeColor=#788AA3;fontColor=#46495D;rounded=1;" parent="Ojdv8ZBGMiVeSCYMn6bP-1" vertex="1">
                    <mxGeometry y="280" width="200" height="30" as="geometry"/>
                </mxCell>
                <mxCell id="Ojdv8ZBGMiVeSCYMn6bP-27" value="FK" style="shape=partialRectangle;overflow=hidden;connectable=0;fillColor=none;top=0;left=0;bottom=0;right=0;strokeColor=#788AA3;fontColor=#46495D;rounded=1;" parent="Ojdv8ZBGMiVeSCYMn6bP-26" vertex="1">
                    <mxGeometry width="30" height="30" as="geometry">
                        <mxRectangle width="30" height="30" as="alternateBounds"/>
                    </mxGeometry>
                </mxCell>
                <mxCell id="Ojdv8ZBGMiVeSCYMn6bP-28" value="ID_EXTRAS" style="shape=partialRectangle;overflow=hidden;connectable=0;fillColor=none;top=0;left=0;bottom=0;right=0;align=left;spacingLeft=6;strokeColor=#788AA3;fontColor=#46495D;rounded=1;" parent="Ojdv8ZBGMiVeSCYMn6bP-26" vertex="1">
                    <mxGeometry x="30" width="170" height="30" as="geometry">
                        <mxRectangle width="170" height="30" as="alternateBounds"/>
                    </mxGeometry>
                </mxCell>
                <mxCell id="Ojdv8ZBGMiVeSCYMn6bP-29" value="" style="shape=partialRectangle;collapsible=0;dropTarget=0;pointerEvents=0;fillColor=none;points=[[0,0.5],[1,0.5]];portConstraint=eastwest;top=0;left=0;right=0;bottom=0;strokeColor=#788AA3;fontColor=#46495D;rounded=1;" parent="Ojdv8ZBGMiVeSCYMn6bP-1" vertex="1">
                    <mxGeometry y="310" width="200" height="30" as="geometry"/>
                </mxCell>
                <mxCell id="Ojdv8ZBGMiVeSCYMn6bP-30" value="FK" style="shape=partialRectangle;overflow=hidden;connectable=0;fillColor=none;top=0;left=0;bottom=0;right=0;strokeColor=#788AA3;fontColor=#46495D;rounded=1;" parent="Ojdv8ZBGMiVeSCYMn6bP-29" vertex="1">
                    <mxGeometry width="30" height="30" as="geometry">
                        <mxRectangle width="30" height="30" as="alternateBounds"/>
                    </mxGeometry>
                </mxCell>
                <mxCell id="Ojdv8ZBGMiVeSCYMn6bP-31" value="ID_BEBIDAS" style="shape=partialRectangle;overflow=hidden;connectable=0;fillColor=none;top=0;left=0;bottom=0;right=0;align=left;spacingLeft=6;strokeColor=#788AA3;fontColor=#46495D;rounded=1;" parent="Ojdv8ZBGMiVeSCYMn6bP-29" vertex="1">
                    <mxGeometry x="30" width="170" height="30" as="geometry">
                        <mxRectangle width="170" height="30" as="alternateBounds"/>
                    </mxGeometry>
                </mxCell>
                <mxCell id="Ojdv8ZBGMiVeSCYMn6bP-32" value="CATEGORIA " style="shape=table;startSize=30;container=1;collapsible=1;childLayout=tableLayout;fixedRows=1;rowLines=0;fontStyle=1;align=center;resizeLast=1;fillColor=#B2C9AB;strokeColor=#788AA3;fontColor=#46495D;rounded=1;" parent="1" vertex="1">
                    <mxGeometry x="770" y="40" width="200" height="200" as="geometry"/>
                </mxCell>
                <mxCell id="Ojdv8ZBGMiVeSCYMn6bP-33" value="" style="shape=partialRectangle;collapsible=0;dropTarget=0;pointerEvents=0;fillColor=none;points=[[0,0.5],[1,0.5]];portConstraint=eastwest;top=0;left=0;right=0;bottom=1;strokeColor=#788AA3;fontColor=#46495D;rounded=1;" parent="Ojdv8ZBGMiVeSCYMn6bP-32" vertex="1">
                    <mxGeometry y="30" width="200" height="30" as="geometry"/>
                </mxCell>
                <mxCell id="Ojdv8ZBGMiVeSCYMn6bP-34" value="PK" style="shape=partialRectangle;overflow=hidden;connectable=0;fillColor=none;top=0;left=0;bottom=0;right=0;fontStyle=1;strokeColor=#788AA3;fontColor=#46495D;rounded=1;" parent="Ojdv8ZBGMiVeSCYMn6bP-33" vertex="1">
                    <mxGeometry width="30" height="30" as="geometry">
                        <mxRectangle width="30" height="30" as="alternateBounds"/>
                    </mxGeometry>
                </mxCell>
                <mxCell id="Ojdv8ZBGMiVeSCYMn6bP-35" value="ID_CATEGORIA" style="shape=partialRectangle;overflow=hidden;connectable=0;fillColor=none;top=0;left=0;bottom=0;right=0;align=left;spacingLeft=6;fontStyle=5;strokeColor=#788AA3;fontColor=#46495D;rounded=1;" parent="Ojdv8ZBGMiVeSCYMn6bP-33" vertex="1">
                    <mxGeometry x="30" width="170" height="30" as="geometry">
                        <mxRectangle width="170" height="30" as="alternateBounds"/>
                    </mxGeometry>
                </mxCell>
                <mxCell id="Ojdv8ZBGMiVeSCYMn6bP-36" value="" style="shape=partialRectangle;collapsible=0;dropTarget=0;pointerEvents=0;fillColor=none;points=[[0,0.5],[1,0.5]];portConstraint=eastwest;top=0;left=0;right=0;bottom=0;strokeColor=#788AA3;fontColor=#46495D;rounded=1;" parent="Ojdv8ZBGMiVeSCYMn6bP-32" vertex="1">
                    <mxGeometry y="60" width="200" height="30" as="geometry"/>
                </mxCell>
                <mxCell id="Ojdv8ZBGMiVeSCYMn6bP-37" value="FK" style="shape=partialRectangle;overflow=hidden;connectable=0;fillColor=none;top=0;left=0;bottom=0;right=0;strokeColor=#788AA3;fontColor=#46495D;rounded=1;" parent="Ojdv8ZBGMiVeSCYMn6bP-36" vertex="1">
                    <mxGeometry width="30" height="30" as="geometry">
                        <mxRectangle width="30" height="30" as="alternateBounds"/>
                    </mxGeometry>
                </mxCell>
                <mxCell id="Ojdv8ZBGMiVeSCYMn6bP-38" value="ID_PRATO" style="shape=partialRectangle;overflow=hidden;connectable=0;fillColor=none;top=0;left=0;bottom=0;right=0;align=left;spacingLeft=6;strokeColor=#788AA3;fontColor=#46495D;rounded=1;" parent="Ojdv8ZBGMiVeSCYMn6bP-36" vertex="1">
                    <mxGeometry x="30" width="170" height="30" as="geometry">
                        <mxRectangle width="170" height="30" as="alternateBounds"/>
                    </mxGeometry>
                </mxCell>
                <mxCell id="Ojdv8ZBGMiVeSCYMn6bP-39" value="" style="shape=partialRectangle;collapsible=0;dropTarget=0;pointerEvents=0;fillColor=none;points=[[0,0.5],[1,0.5]];portConstraint=eastwest;top=0;left=0;right=0;bottom=0;strokeColor=#788AA3;fontColor=#46495D;rounded=1;" parent="Ojdv8ZBGMiVeSCYMn6bP-32" vertex="1">
                    <mxGeometry y="90" width="200" height="30" as="geometry"/>
                </mxCell>
                <mxCell id="Ojdv8ZBGMiVeSCYMn6bP-40" value="" style="shape=partialRectangle;overflow=hidden;connectable=0;fillColor=none;top=0;left=0;bottom=0;right=0;strokeColor=#788AA3;fontColor=#46495D;rounded=1;" parent="Ojdv8ZBGMiVeSCYMn6bP-39" vertex="1">
                    <mxGeometry width="30" height="30" as="geometry">
                        <mxRectangle width="30" height="30" as="alternateBounds"/>
                    </mxGeometry>
                </mxCell>
                <mxCell id="Ojdv8ZBGMiVeSCYMn6bP-41" value="DESCRICAO" style="shape=partialRectangle;overflow=hidden;connectable=0;fillColor=none;top=0;left=0;bottom=0;right=0;align=left;spacingLeft=6;strokeColor=#788AA3;fontColor=#46495D;rounded=1;" parent="Ojdv8ZBGMiVeSCYMn6bP-39" vertex="1">
                    <mxGeometry x="30" width="170" height="30" as="geometry">
                        <mxRectangle width="170" height="30" as="alternateBounds"/>
                    </mxGeometry>
                </mxCell>
                <mxCell id="Ojdv8ZBGMiVeSCYMn6bP-42" value="" style="shape=partialRectangle;collapsible=0;dropTarget=0;pointerEvents=0;fillColor=none;points=[[0,0.5],[1,0.5]];portConstraint=eastwest;top=0;left=0;right=0;bottom=0;strokeColor=#788AA3;fontColor=#46495D;rounded=1;" parent="Ojdv8ZBGMiVeSCYMn6bP-32" vertex="1">
                    <mxGeometry y="120" width="200" height="40" as="geometry"/>
                </mxCell>
                <mxCell id="Ojdv8ZBGMiVeSCYMn6bP-43" value="" style="shape=partialRectangle;overflow=hidden;connectable=0;fillColor=none;top=0;left=0;bottom=0;right=0;strokeColor=#788AA3;fontColor=#46495D;rounded=1;" parent="Ojdv8ZBGMiVeSCYMn6bP-42" vertex="1">
                    <mxGeometry width="30" height="40" as="geometry">
                        <mxRectangle width="30" height="40" as="alternateBounds"/>
                    </mxGeometry>
                </mxCell>
                <mxCell id="Ojdv8ZBGMiVeSCYMn6bP-44" value="FOTO" style="shape=partialRectangle;overflow=hidden;connectable=0;fillColor=none;top=0;left=0;bottom=0;right=0;align=left;spacingLeft=6;strokeColor=#788AA3;fontColor=#46495D;rounded=1;" parent="Ojdv8ZBGMiVeSCYMn6bP-42" vertex="1">
                    <mxGeometry x="30" width="170" height="40" as="geometry">
                        <mxRectangle width="170" height="40" as="alternateBounds"/>
                    </mxGeometry>
                </mxCell>
                <mxCell id="Ojdv8ZBGMiVeSCYMn6bP-45" value="" style="shape=partialRectangle;collapsible=0;dropTarget=0;pointerEvents=0;fillColor=none;points=[[0,0.5],[1,0.5]];portConstraint=eastwest;top=0;left=0;right=0;bottom=0;strokeColor=#788AA3;fontColor=#46495D;rounded=1;" parent="Ojdv8ZBGMiVeSCYMn6bP-32" vertex="1">
                    <mxGeometry y="160" width="200" height="40" as="geometry"/>
                </mxCell>
                <mxCell id="Ojdv8ZBGMiVeSCYMn6bP-46" value="" style="shape=partialRectangle;overflow=hidden;connectable=0;fillColor=none;top=0;left=0;bottom=0;right=0;strokeColor=#788AA3;fontColor=#46495D;rounded=1;" parent="Ojdv8ZBGMiVeSCYMn6bP-45" vertex="1">
                    <mxGeometry width="30" height="40" as="geometry">
                        <mxRectangle width="30" height="40" as="alternateBounds"/>
                    </mxGeometry>
                </mxCell>
                <mxCell id="Ojdv8ZBGMiVeSCYMn6bP-47" value="PRECO" style="shape=partialRectangle;overflow=hidden;connectable=0;fillColor=none;top=0;left=0;bottom=0;right=0;align=left;spacingLeft=6;strokeColor=#788AA3;fontColor=#46495D;rounded=1;" parent="Ojdv8ZBGMiVeSCYMn6bP-45" vertex="1">
                    <mxGeometry x="30" width="170" height="40" as="geometry">
                        <mxRectangle width="170" height="40" as="alternateBounds"/>
                    </mxGeometry>
                </mxCell>
                <mxCell id="Ojdv8ZBGMiVeSCYMn6bP-48" value="RESTAURANTE" style="shape=table;startSize=30;container=1;collapsible=1;childLayout=tableLayout;fixedRows=1;rowLines=0;fontStyle=1;align=center;resizeLast=1;fillColor=#B2C9AB;strokeColor=#788AA3;fontColor=#46495D;rounded=1;" parent="1" vertex="1">
                    <mxGeometry x="405" y="40" width="200" height="220" as="geometry"/>
                </mxCell>
                <mxCell id="Ojdv8ZBGMiVeSCYMn6bP-49" value="" style="shape=partialRectangle;collapsible=0;dropTarget=0;pointerEvents=0;fillColor=none;points=[[0,0.5],[1,0.5]];portConstraint=eastwest;top=0;left=0;right=0;bottom=1;strokeColor=#788AA3;fontColor=#46495D;rounded=1;" parent="Ojdv8ZBGMiVeSCYMn6bP-48" vertex="1">
                    <mxGeometry y="30" width="200" height="30" as="geometry"/>
                </mxCell>
                <mxCell id="Ojdv8ZBGMiVeSCYMn6bP-50" value="PK" style="shape=partialRectangle;overflow=hidden;connectable=0;fillColor=none;top=0;left=0;bottom=0;right=0;fontStyle=1;strokeColor=#788AA3;fontColor=#46495D;rounded=1;" parent="Ojdv8ZBGMiVeSCYMn6bP-49" vertex="1">
                    <mxGeometry width="30" height="30" as="geometry">
                        <mxRectangle width="30" height="30" as="alternateBounds"/>
                    </mxGeometry>
                </mxCell>
                <mxCell id="Ojdv8ZBGMiVeSCYMn6bP-51" value="ID_RESTAURANTE" style="shape=partialRectangle;overflow=hidden;connectable=0;fillColor=none;top=0;left=0;bottom=0;right=0;align=left;spacingLeft=6;fontStyle=5;strokeColor=#788AA3;fontColor=#46495D;rounded=1;" parent="Ojdv8ZBGMiVeSCYMn6bP-49" vertex="1">
                    <mxGeometry x="30" width="170" height="30" as="geometry">
                        <mxRectangle width="170" height="30" as="alternateBounds"/>
                    </mxGeometry>
                </mxCell>
                <mxCell id="Ojdv8ZBGMiVeSCYMn6bP-52" value="" style="shape=partialRectangle;collapsible=0;dropTarget=0;pointerEvents=0;fillColor=none;points=[[0,0.5],[1,0.5]];portConstraint=eastwest;top=0;left=0;right=0;bottom=0;strokeColor=#788AA3;fontColor=#46495D;rounded=1;" parent="Ojdv8ZBGMiVeSCYMn6bP-48" vertex="1">
                    <mxGeometry y="60" width="200" height="30" as="geometry"/>
                </mxCell>
                <mxCell id="Ojdv8ZBGMiVeSCYMn6bP-53" value="" style="shape=partialRectangle;overflow=hidden;connectable=0;fillColor=none;top=0;left=0;bottom=0;right=0;strokeColor=#788AA3;fontColor=#46495D;rounded=1;" parent="Ojdv8ZBGMiVeSCYMn6bP-52" vertex="1">
                    <mxGeometry width="30" height="30" as="geometry">
                        <mxRectangle width="30" height="30" as="alternateBounds"/>
                    </mxGeometry>
                </mxCell>
                <mxCell id="Ojdv8ZBGMiVeSCYMn6bP-54" value="NOME" style="shape=partialRectangle;overflow=hidden;connectable=0;fillColor=none;top=0;left=0;bottom=0;right=0;align=left;spacingLeft=6;strokeColor=#788AA3;fontColor=#46495D;rounded=1;" parent="Ojdv8ZBGMiVeSCYMn6bP-52" vertex="1">
                    <mxGeometry x="30" width="170" height="30" as="geometry">
                        <mxRectangle width="170" height="30" as="alternateBounds"/>
                    </mxGeometry>
                </mxCell>
                <mxCell id="Ojdv8ZBGMiVeSCYMn6bP-55" value="" style="shape=partialRectangle;collapsible=0;dropTarget=0;pointerEvents=0;fillColor=none;points=[[0,0.5],[1,0.5]];portConstraint=eastwest;top=0;left=0;right=0;bottom=0;strokeColor=#788AA3;fontColor=#46495D;rounded=1;" parent="Ojdv8ZBGMiVeSCYMn6bP-48" vertex="1">
                    <mxGeometry y="90" width="200" height="30" as="geometry"/>
                </mxCell>
                <mxCell id="Ojdv8ZBGMiVeSCYMn6bP-56" value="" style="shape=partialRectangle;overflow=hidden;connectable=0;fillColor=none;top=0;left=0;bottom=0;right=0;strokeColor=#788AA3;fontColor=#46495D;rounded=1;" parent="Ojdv8ZBGMiVeSCYMn6bP-55" vertex="1">
                    <mxGeometry width="30" height="30" as="geometry">
                        <mxRectangle width="30" height="30" as="alternateBounds"/>
                    </mxGeometry>
                </mxCell>
                <mxCell id="Ojdv8ZBGMiVeSCYMn6bP-57" value="FOTO" style="shape=partialRectangle;overflow=hidden;connectable=0;fillColor=none;top=0;left=0;bottom=0;right=0;align=left;spacingLeft=6;strokeColor=#788AA3;fontColor=#46495D;rounded=1;" parent="Ojdv8ZBGMiVeSCYMn6bP-55" vertex="1">
                    <mxGeometry x="30" width="170" height="30" as="geometry">
                        <mxRectangle width="170" height="30" as="alternateBounds"/>
                    </mxGeometry>
                </mxCell>
                <mxCell id="Ojdv8ZBGMiVeSCYMn6bP-58" value="" style="shape=partialRectangle;collapsible=0;dropTarget=0;pointerEvents=0;fillColor=none;points=[[0,0.5],[1,0.5]];portConstraint=eastwest;top=0;left=0;right=0;bottom=0;strokeColor=#788AA3;fontColor=#46495D;rounded=1;" parent="Ojdv8ZBGMiVeSCYMn6bP-48" vertex="1">
                    <mxGeometry y="120" width="200" height="30" as="geometry"/>
                </mxCell>
                <mxCell id="Ojdv8ZBGMiVeSCYMn6bP-59" value="" style="shape=partialRectangle;overflow=hidden;connectable=0;fillColor=none;top=0;left=0;bottom=0;right=0;strokeColor=#788AA3;fontColor=#46495D;rounded=1;" parent="Ojdv8ZBGMiVeSCYMn6bP-58" vertex="1">
                    <mxGeometry width="30" height="30" as="geometry">
                        <mxRectangle width="30" height="30" as="alternateBounds"/>
                    </mxGeometry>
                </mxCell>
                <mxCell id="Ojdv8ZBGMiVeSCYMn6bP-60" value="ENDERECO" style="shape=partialRectangle;overflow=hidden;connectable=0;fillColor=none;top=0;left=0;bottom=0;right=0;align=left;spacingLeft=6;strokeColor=#788AA3;fontColor=#46495D;rounded=1;" parent="Ojdv8ZBGMiVeSCYMn6bP-58" vertex="1">
                    <mxGeometry x="30" width="170" height="30" as="geometry">
                        <mxRectangle width="170" height="30" as="alternateBounds"/>
                    </mxGeometry>
                </mxCell>
                <mxCell id="Ojdv8ZBGMiVeSCYMn6bP-61" value="" style="shape=partialRectangle;collapsible=0;dropTarget=0;pointerEvents=0;fillColor=none;points=[[0,0.5],[1,0.5]];portConstraint=eastwest;top=0;left=0;right=0;bottom=0;strokeColor=#788AA3;fontColor=#46495D;rounded=1;" parent="Ojdv8ZBGMiVeSCYMn6bP-48" vertex="1">
                    <mxGeometry y="150" width="200" height="30" as="geometry"/>
                </mxCell>
                <mxCell id="Ojdv8ZBGMiVeSCYMn6bP-62" value="" style="shape=partialRectangle;overflow=hidden;connectable=0;fillColor=none;top=0;left=0;bottom=0;right=0;strokeColor=#788AA3;fontColor=#46495D;rounded=1;" parent="Ojdv8ZBGMiVeSCYMn6bP-61" vertex="1">
                    <mxGeometry width="30" height="30" as="geometry">
                        <mxRectangle width="30" height="30" as="alternateBounds"/>
                    </mxGeometry>
                </mxCell>
                <mxCell id="Ojdv8ZBGMiVeSCYMn6bP-63" value="HORARIO" style="shape=partialRectangle;overflow=hidden;connectable=0;fillColor=none;top=0;left=0;bottom=0;right=0;align=left;spacingLeft=6;strokeColor=#788AA3;fontColor=#46495D;rounded=1;" parent="Ojdv8ZBGMiVeSCYMn6bP-61" vertex="1">
                    <mxGeometry x="30" width="170" height="30" as="geometry">
                        <mxRectangle width="170" height="30" as="alternateBounds"/>
                    </mxGeometry>
                </mxCell>
                <mxCell id="Ojdv8ZBGMiVeSCYMn6bP-64" value="" style="shape=partialRectangle;collapsible=0;dropTarget=0;pointerEvents=0;fillColor=none;points=[[0,0.5],[1,0.5]];portConstraint=eastwest;top=0;left=0;right=0;bottom=0;strokeColor=#788AA3;fontColor=#46495D;rounded=1;" parent="Ojdv8ZBGMiVeSCYMn6bP-48" vertex="1">
                    <mxGeometry y="180" width="200" height="30" as="geometry"/>
                </mxCell>
                <mxCell id="Ojdv8ZBGMiVeSCYMn6bP-65" value="" style="shape=partialRectangle;overflow=hidden;connectable=0;fillColor=none;top=0;left=0;bottom=0;right=0;strokeColor=#788AA3;fontColor=#46495D;rounded=1;" parent="Ojdv8ZBGMiVeSCYMn6bP-64" vertex="1">
                    <mxGeometry width="30" height="30" as="geometry">
                        <mxRectangle width="30" height="30" as="alternateBounds"/>
                    </mxGeometry>
                </mxCell>
                <mxCell id="Ojdv8ZBGMiVeSCYMn6bP-66" value="CLASSIFICACAO" style="shape=partialRectangle;overflow=hidden;connectable=0;fillColor=none;top=0;left=0;bottom=0;right=0;align=left;spacingLeft=6;strokeColor=#788AA3;fontColor=#46495D;rounded=1;" parent="Ojdv8ZBGMiVeSCYMn6bP-64" vertex="1">
                    <mxGeometry x="30" width="170" height="30" as="geometry">
                        <mxRectangle width="170" height="30" as="alternateBounds"/>
                    </mxGeometry>
                </mxCell>
                <mxCell id="Ojdv8ZBGMiVeSCYMn6bP-67" value="ENTRADA" style="shape=table;startSize=30;container=1;collapsible=1;childLayout=tableLayout;fixedRows=1;rowLines=0;fontStyle=1;align=center;resizeLast=1;fillColor=#B2C9AB;strokeColor=#788AA3;fontColor=#46495D;rounded=1;" parent="1" vertex="1">
                    <mxGeometry x="50" y="110" width="140" height="160" as="geometry"/>
                </mxCell>
                <mxCell id="Ojdv8ZBGMiVeSCYMn6bP-68" value="" style="shape=partialRectangle;collapsible=0;dropTarget=0;pointerEvents=0;fillColor=none;points=[[0,0.5],[1,0.5]];portConstraint=eastwest;top=0;left=0;right=0;bottom=1;strokeColor=#788AA3;fontColor=#46495D;rounded=1;" parent="Ojdv8ZBGMiVeSCYMn6bP-67" vertex="1">
                    <mxGeometry y="30" width="140" height="30" as="geometry"/>
                </mxCell>
                <mxCell id="Ojdv8ZBGMiVeSCYMn6bP-69" value="PK" style="shape=partialRectangle;overflow=hidden;connectable=0;fillColor=none;top=0;left=0;bottom=0;right=0;fontStyle=1;strokeColor=#788AA3;fontColor=#46495D;rounded=1;" parent="Ojdv8ZBGMiVeSCYMn6bP-68" vertex="1">
                    <mxGeometry width="30" height="30" as="geometry">
                        <mxRectangle width="30" height="30" as="alternateBounds"/>
                    </mxGeometry>
                </mxCell>
                <mxCell id="Ojdv8ZBGMiVeSCYMn6bP-70" value="ID_ENTRADA" style="shape=partialRectangle;overflow=hidden;connectable=0;fillColor=none;top=0;left=0;bottom=0;right=0;align=left;spacingLeft=6;fontStyle=5;strokeColor=#788AA3;fontColor=#46495D;rounded=1;" parent="Ojdv8ZBGMiVeSCYMn6bP-68" vertex="1">
                    <mxGeometry x="30" width="110" height="30" as="geometry">
                        <mxRectangle width="110" height="30" as="alternateBounds"/>
                    </mxGeometry>
                </mxCell>
                <mxCell id="Ojdv8ZBGMiVeSCYMn6bP-71" value="" style="shape=partialRectangle;collapsible=0;dropTarget=0;pointerEvents=0;fillColor=none;points=[[0,0.5],[1,0.5]];portConstraint=eastwest;top=0;left=0;right=0;bottom=0;strokeColor=#788AA3;fontColor=#46495D;rounded=1;" parent="Ojdv8ZBGMiVeSCYMn6bP-67" vertex="1">
                    <mxGeometry y="60" width="140" height="30" as="geometry"/>
                </mxCell>
                <mxCell id="Ojdv8ZBGMiVeSCYMn6bP-72" value="" style="shape=partialRectangle;overflow=hidden;connectable=0;fillColor=none;top=0;left=0;bottom=0;right=0;strokeColor=#788AA3;fontColor=#46495D;rounded=1;" parent="Ojdv8ZBGMiVeSCYMn6bP-71" vertex="1">
                    <mxGeometry width="30" height="30" as="geometry">
                        <mxRectangle width="30" height="30" as="alternateBounds"/>
                    </mxGeometry>
                </mxCell>
                <mxCell id="Ojdv8ZBGMiVeSCYMn6bP-73" value="NOME" style="shape=partialRectangle;overflow=hidden;connectable=0;fillColor=none;top=0;left=0;bottom=0;right=0;align=left;spacingLeft=6;strokeColor=#788AA3;fontColor=#46495D;rounded=1;" parent="Ojdv8ZBGMiVeSCYMn6bP-71" vertex="1">
                    <mxGeometry x="30" width="110" height="30" as="geometry">
                        <mxRectangle width="110" height="30" as="alternateBounds"/>
                    </mxGeometry>
                </mxCell>
                <mxCell id="Ojdv8ZBGMiVeSCYMn6bP-74" value="" style="shape=partialRectangle;collapsible=0;dropTarget=0;pointerEvents=0;fillColor=none;points=[[0,0.5],[1,0.5]];portConstraint=eastwest;top=0;left=0;right=0;bottom=0;strokeColor=#788AA3;fontColor=#46495D;rounded=1;" parent="Ojdv8ZBGMiVeSCYMn6bP-67" vertex="1">
                    <mxGeometry y="90" width="140" height="30" as="geometry"/>
                </mxCell>
                <mxCell id="Ojdv8ZBGMiVeSCYMn6bP-75" value="" style="shape=partialRectangle;overflow=hidden;connectable=0;fillColor=none;top=0;left=0;bottom=0;right=0;strokeColor=#788AA3;fontColor=#46495D;rounded=1;" parent="Ojdv8ZBGMiVeSCYMn6bP-74" vertex="1">
                    <mxGeometry width="30" height="30" as="geometry">
                        <mxRectangle width="30" height="30" as="alternateBounds"/>
                    </mxGeometry>
                </mxCell>
                <mxCell id="Ojdv8ZBGMiVeSCYMn6bP-76" value="DESCRICAO" style="shape=partialRectangle;overflow=hidden;connectable=0;fillColor=none;top=0;left=0;bottom=0;right=0;align=left;spacingLeft=6;strokeColor=#788AA3;fontColor=#46495D;rounded=1;" parent="Ojdv8ZBGMiVeSCYMn6bP-74" vertex="1">
                    <mxGeometry x="30" width="110" height="30" as="geometry">
                        <mxRectangle width="110" height="30" as="alternateBounds"/>
                    </mxGeometry>
                </mxCell>
                <mxCell id="Ojdv8ZBGMiVeSCYMn6bP-77" value="" style="shape=partialRectangle;collapsible=0;dropTarget=0;pointerEvents=0;fillColor=none;points=[[0,0.5],[1,0.5]];portConstraint=eastwest;top=0;left=0;right=0;bottom=0;strokeColor=#788AA3;fontColor=#46495D;rounded=1;" parent="Ojdv8ZBGMiVeSCYMn6bP-67" vertex="1">
                    <mxGeometry y="120" width="140" height="30" as="geometry"/>
                </mxCell>
                <mxCell id="Ojdv8ZBGMiVeSCYMn6bP-78" value="FK" style="shape=partialRectangle;overflow=hidden;connectable=0;fillColor=none;top=0;left=0;bottom=0;right=0;strokeColor=#788AA3;fontColor=#46495D;rounded=1;" parent="Ojdv8ZBGMiVeSCYMn6bP-77" vertex="1">
                    <mxGeometry width="30" height="30" as="geometry">
                        <mxRectangle width="30" height="30" as="alternateBounds"/>
                    </mxGeometry>
                </mxCell>
                <mxCell id="Ojdv8ZBGMiVeSCYMn6bP-79" value="ID_PRATO" style="shape=partialRectangle;overflow=hidden;connectable=0;fillColor=none;top=0;left=0;bottom=0;right=0;align=left;spacingLeft=6;strokeColor=#788AA3;fontColor=#46495D;rounded=1;" parent="Ojdv8ZBGMiVeSCYMn6bP-77" vertex="1">
                    <mxGeometry x="30" width="110" height="30" as="geometry">
                        <mxRectangle width="110" height="30" as="alternateBounds"/>
                    </mxGeometry>
                </mxCell>
                <mxCell id="Ojdv8ZBGMiVeSCYMn6bP-80" value="PRATO_PRINCIPAL" style="shape=table;startSize=30;container=1;collapsible=1;childLayout=tableLayout;fixedRows=1;rowLines=0;fontStyle=1;align=center;resizeLast=1;fillColor=#B2C9AB;strokeColor=#788AA3;fontColor=#46495D;rounded=1;" parent="1" vertex="1">
                    <mxGeometry x="50" y="320" width="200" height="160" as="geometry"/>
                </mxCell>
                <mxCell id="Ojdv8ZBGMiVeSCYMn6bP-81" value="" style="shape=partialRectangle;collapsible=0;dropTarget=0;pointerEvents=0;fillColor=none;points=[[0,0.5],[1,0.5]];portConstraint=eastwest;top=0;left=0;right=0;bottom=1;strokeColor=#788AA3;fontColor=#46495D;rounded=1;" parent="Ojdv8ZBGMiVeSCYMn6bP-80" vertex="1">
                    <mxGeometry y="30" width="200" height="30" as="geometry"/>
                </mxCell>
                <mxCell id="Ojdv8ZBGMiVeSCYMn6bP-82" value="PK" style="shape=partialRectangle;overflow=hidden;connectable=0;fillColor=none;top=0;left=0;bottom=0;right=0;fontStyle=1;strokeColor=#788AA3;fontColor=#46495D;rounded=1;" parent="Ojdv8ZBGMiVeSCYMn6bP-81" vertex="1">
                    <mxGeometry width="30" height="30" as="geometry">
                        <mxRectangle width="30" height="30" as="alternateBounds"/>
                    </mxGeometry>
                </mxCell>
                <mxCell id="Ojdv8ZBGMiVeSCYMn6bP-83" value="IDE_PRATO_PRINCIPAL" style="shape=partialRectangle;overflow=hidden;connectable=0;fillColor=none;top=0;left=0;bottom=0;right=0;align=left;spacingLeft=6;fontStyle=5;strokeColor=#788AA3;fontColor=#46495D;rounded=1;" parent="Ojdv8ZBGMiVeSCYMn6bP-81" vertex="1">
                    <mxGeometry x="30" width="170" height="30" as="geometry">
                        <mxRectangle width="170" height="30" as="alternateBounds"/>
                    </mxGeometry>
                </mxCell>
                <mxCell id="Ojdv8ZBGMiVeSCYMn6bP-84" value="" style="shape=partialRectangle;collapsible=0;dropTarget=0;pointerEvents=0;fillColor=none;points=[[0,0.5],[1,0.5]];portConstraint=eastwest;top=0;left=0;right=0;bottom=0;strokeColor=#788AA3;fontColor=#46495D;rounded=1;" parent="Ojdv8ZBGMiVeSCYMn6bP-80" vertex="1">
                    <mxGeometry y="60" width="200" height="30" as="geometry"/>
                </mxCell>
                <mxCell id="Ojdv8ZBGMiVeSCYMn6bP-85" value="" style="shape=partialRectangle;overflow=hidden;connectable=0;fillColor=none;top=0;left=0;bottom=0;right=0;strokeColor=#788AA3;fontColor=#46495D;rounded=1;" parent="Ojdv8ZBGMiVeSCYMn6bP-84" vertex="1">
                    <mxGeometry width="30" height="30" as="geometry">
                        <mxRectangle width="30" height="30" as="alternateBounds"/>
                    </mxGeometry>
                </mxCell>
                <mxCell id="Ojdv8ZBGMiVeSCYMn6bP-86" value="NOME" style="shape=partialRectangle;overflow=hidden;connectable=0;fillColor=none;top=0;left=0;bottom=0;right=0;align=left;spacingLeft=6;strokeColor=#788AA3;fontColor=#46495D;rounded=1;" parent="Ojdv8ZBGMiVeSCYMn6bP-84" vertex="1">
                    <mxGeometry x="30" width="170" height="30" as="geometry">
                        <mxRectangle width="170" height="30" as="alternateBounds"/>
                    </mxGeometry>
                </mxCell>
                <mxCell id="Ojdv8ZBGMiVeSCYMn6bP-87" value="" style="shape=partialRectangle;collapsible=0;dropTarget=0;pointerEvents=0;fillColor=none;points=[[0,0.5],[1,0.5]];portConstraint=eastwest;top=0;left=0;right=0;bottom=0;strokeColor=#788AA3;fontColor=#46495D;rounded=1;" parent="Ojdv8ZBGMiVeSCYMn6bP-80" vertex="1">
                    <mxGeometry y="90" width="200" height="30" as="geometry"/>
                </mxCell>
                <mxCell id="Ojdv8ZBGMiVeSCYMn6bP-88" value="" style="shape=partialRectangle;overflow=hidden;connectable=0;fillColor=none;top=0;left=0;bottom=0;right=0;strokeColor=#788AA3;fontColor=#46495D;rounded=1;" parent="Ojdv8ZBGMiVeSCYMn6bP-87" vertex="1">
                    <mxGeometry width="30" height="30" as="geometry">
                        <mxRectangle width="30" height="30" as="alternateBounds"/>
                    </mxGeometry>
                </mxCell>
                <mxCell id="Ojdv8ZBGMiVeSCYMn6bP-89" value="DESCRICAO" style="shape=partialRectangle;overflow=hidden;connectable=0;fillColor=none;top=0;left=0;bottom=0;right=0;align=left;spacingLeft=6;strokeColor=#788AA3;fontColor=#46495D;rounded=1;" parent="Ojdv8ZBGMiVeSCYMn6bP-87" vertex="1">
                    <mxGeometry x="30" width="170" height="30" as="geometry">
                        <mxRectangle width="170" height="30" as="alternateBounds"/>
                    </mxGeometry>
                </mxCell>
                <mxCell id="Ojdv8ZBGMiVeSCYMn6bP-90" value="" style="shape=partialRectangle;collapsible=0;dropTarget=0;pointerEvents=0;fillColor=none;points=[[0,0.5],[1,0.5]];portConstraint=eastwest;top=0;left=0;right=0;bottom=0;strokeColor=#788AA3;fontColor=#46495D;rounded=1;" parent="Ojdv8ZBGMiVeSCYMn6bP-80" vertex="1">
                    <mxGeometry y="120" width="200" height="30" as="geometry"/>
                </mxCell>
                <mxCell id="Ojdv8ZBGMiVeSCYMn6bP-91" value="FK" style="shape=partialRectangle;overflow=hidden;connectable=0;fillColor=none;top=0;left=0;bottom=0;right=0;strokeColor=#788AA3;fontColor=#46495D;rounded=1;" parent="Ojdv8ZBGMiVeSCYMn6bP-90" vertex="1">
                    <mxGeometry width="30" height="30" as="geometry">
                        <mxRectangle width="30" height="30" as="alternateBounds"/>
                    </mxGeometry>
                </mxCell>
                <mxCell id="Ojdv8ZBGMiVeSCYMn6bP-92" value="ID_PRATO" style="shape=partialRectangle;overflow=hidden;connectable=0;fillColor=none;top=0;left=0;bottom=0;right=0;align=left;spacingLeft=6;strokeColor=#788AA3;fontColor=#46495D;rounded=1;" parent="Ojdv8ZBGMiVeSCYMn6bP-90" vertex="1">
                    <mxGeometry x="30" width="170" height="30" as="geometry">
                        <mxRectangle width="170" height="30" as="alternateBounds"/>
                    </mxGeometry>
                </mxCell>
                <mxCell id="Ojdv8ZBGMiVeSCYMn6bP-93" value="BEBIDAS" style="shape=table;startSize=30;container=1;collapsible=1;childLayout=tableLayout;fixedRows=1;rowLines=0;fontStyle=1;align=center;resizeLast=1;fillColor=#B2C9AB;strokeColor=#788AA3;fontColor=#46495D;rounded=1;" parent="1" vertex="1">
                    <mxGeometry x="770" y="480" width="200" height="160" as="geometry"/>
                </mxCell>
                <mxCell id="Ojdv8ZBGMiVeSCYMn6bP-94" value="" style="shape=partialRectangle;collapsible=0;dropTarget=0;pointerEvents=0;fillColor=none;points=[[0,0.5],[1,0.5]];portConstraint=eastwest;top=0;left=0;right=0;bottom=1;strokeColor=#788AA3;fontColor=#46495D;rounded=1;" parent="Ojdv8ZBGMiVeSCYMn6bP-93" vertex="1">
                    <mxGeometry y="30" width="200" height="30" as="geometry"/>
                </mxCell>
                <mxCell id="Ojdv8ZBGMiVeSCYMn6bP-95" value="PK" style="shape=partialRectangle;overflow=hidden;connectable=0;fillColor=none;top=0;left=0;bottom=0;right=0;fontStyle=1;strokeColor=#788AA3;fontColor=#46495D;rounded=1;" parent="Ojdv8ZBGMiVeSCYMn6bP-94" vertex="1">
                    <mxGeometry width="30" height="30" as="geometry">
                        <mxRectangle width="30" height="30" as="alternateBounds"/>
                    </mxGeometry>
                </mxCell>
                <mxCell id="Ojdv8ZBGMiVeSCYMn6bP-96" value="ID_BEBIDAS" style="shape=partialRectangle;overflow=hidden;connectable=0;fillColor=none;top=0;left=0;bottom=0;right=0;align=left;spacingLeft=6;fontStyle=5;strokeColor=#788AA3;fontColor=#46495D;rounded=1;" parent="Ojdv8ZBGMiVeSCYMn6bP-94" vertex="1">
                    <mxGeometry x="30" width="170" height="30" as="geometry">
                        <mxRectangle width="170" height="30" as="alternateBounds"/>
                    </mxGeometry>
                </mxCell>
                <mxCell id="Ojdv8ZBGMiVeSCYMn6bP-97" value="" style="shape=partialRectangle;collapsible=0;dropTarget=0;pointerEvents=0;fillColor=none;points=[[0,0.5],[1,0.5]];portConstraint=eastwest;top=0;left=0;right=0;bottom=0;strokeColor=#788AA3;fontColor=#46495D;rounded=1;" parent="Ojdv8ZBGMiVeSCYMn6bP-93" vertex="1">
                    <mxGeometry y="60" width="200" height="30" as="geometry"/>
                </mxCell>
                <mxCell id="Ojdv8ZBGMiVeSCYMn6bP-98" value="" style="shape=partialRectangle;overflow=hidden;connectable=0;fillColor=none;top=0;left=0;bottom=0;right=0;strokeColor=#788AA3;fontColor=#46495D;rounded=1;" parent="Ojdv8ZBGMiVeSCYMn6bP-97" vertex="1">
                    <mxGeometry width="30" height="30" as="geometry">
                        <mxRectangle width="30" height="30" as="alternateBounds"/>
                    </mxGeometry>
                </mxCell>
                <mxCell id="Ojdv8ZBGMiVeSCYMn6bP-99" value="NOME" style="shape=partialRectangle;overflow=hidden;connectable=0;fillColor=none;top=0;left=0;bottom=0;right=0;align=left;spacingLeft=6;strokeColor=#788AA3;fontColor=#46495D;rounded=1;" parent="Ojdv8ZBGMiVeSCYMn6bP-97" vertex="1">
                    <mxGeometry x="30" width="170" height="30" as="geometry">
                        <mxRectangle width="170" height="30" as="alternateBounds"/>
                    </mxGeometry>
                </mxCell>
                <mxCell id="Ojdv8ZBGMiVeSCYMn6bP-100" value="" style="shape=partialRectangle;collapsible=0;dropTarget=0;pointerEvents=0;fillColor=none;points=[[0,0.5],[1,0.5]];portConstraint=eastwest;top=0;left=0;right=0;bottom=0;strokeColor=#788AA3;fontColor=#46495D;rounded=1;" parent="Ojdv8ZBGMiVeSCYMn6bP-93" vertex="1">
                    <mxGeometry y="90" width="200" height="30" as="geometry"/>
                </mxCell>
                <mxCell id="Ojdv8ZBGMiVeSCYMn6bP-101" value="" style="shape=partialRectangle;overflow=hidden;connectable=0;fillColor=none;top=0;left=0;bottom=0;right=0;strokeColor=#788AA3;fontColor=#46495D;rounded=1;" parent="Ojdv8ZBGMiVeSCYMn6bP-100" vertex="1">
                    <mxGeometry width="30" height="30" as="geometry">
                        <mxRectangle width="30" height="30" as="alternateBounds"/>
                    </mxGeometry>
                </mxCell>
                <mxCell id="Ojdv8ZBGMiVeSCYMn6bP-102" value="DESCRICAO" style="shape=partialRectangle;overflow=hidden;connectable=0;fillColor=none;top=0;left=0;bottom=0;right=0;align=left;spacingLeft=6;strokeColor=#788AA3;fontColor=#46495D;rounded=1;" parent="Ojdv8ZBGMiVeSCYMn6bP-100" vertex="1">
                    <mxGeometry x="30" width="170" height="30" as="geometry">
                        <mxRectangle width="170" height="30" as="alternateBounds"/>
                    </mxGeometry>
                </mxCell>
                <mxCell id="Ojdv8ZBGMiVeSCYMn6bP-103" value="" style="shape=partialRectangle;collapsible=0;dropTarget=0;pointerEvents=0;fillColor=none;points=[[0,0.5],[1,0.5]];portConstraint=eastwest;top=0;left=0;right=0;bottom=0;strokeColor=#788AA3;fontColor=#46495D;rounded=1;" parent="Ojdv8ZBGMiVeSCYMn6bP-93" vertex="1">
                    <mxGeometry y="120" width="200" height="30" as="geometry"/>
                </mxCell>
                <mxCell id="Ojdv8ZBGMiVeSCYMn6bP-104" value="FK" style="shape=partialRectangle;overflow=hidden;connectable=0;fillColor=none;top=0;left=0;bottom=0;right=0;strokeColor=#788AA3;fontColor=#46495D;rounded=1;" parent="Ojdv8ZBGMiVeSCYMn6bP-103" vertex="1">
                    <mxGeometry width="30" height="30" as="geometry">
                        <mxRectangle width="30" height="30" as="alternateBounds"/>
                    </mxGeometry>
                </mxCell>
                <mxCell id="Ojdv8ZBGMiVeSCYMn6bP-105" value="ID_PRATO" style="shape=partialRectangle;overflow=hidden;connectable=0;fillColor=none;top=0;left=0;bottom=0;right=0;align=left;spacingLeft=6;strokeColor=#788AA3;fontColor=#46495D;rounded=1;" parent="Ojdv8ZBGMiVeSCYMn6bP-103" vertex="1">
                    <mxGeometry x="30" width="170" height="30" as="geometry">
                        <mxRectangle width="170" height="30" as="alternateBounds"/>
                    </mxGeometry>
                </mxCell>
                <mxCell id="Ojdv8ZBGMiVeSCYMn6bP-106" value="EXTRAS" style="shape=table;startSize=30;container=1;collapsible=1;childLayout=tableLayout;fixedRows=1;rowLines=0;fontStyle=1;align=center;resizeLast=1;fillColor=#B2C9AB;strokeColor=#788AA3;fontColor=#46495D;rounded=1;" parent="1" vertex="1">
                    <mxGeometry x="770" y="300" width="200" height="160" as="geometry"/>
                </mxCell>
                <mxCell id="Ojdv8ZBGMiVeSCYMn6bP-107" value="" style="shape=partialRectangle;collapsible=0;dropTarget=0;pointerEvents=0;fillColor=none;points=[[0,0.5],[1,0.5]];portConstraint=eastwest;top=0;left=0;right=0;bottom=1;strokeColor=#788AA3;fontColor=#46495D;rounded=1;" parent="Ojdv8ZBGMiVeSCYMn6bP-106" vertex="1">
                    <mxGeometry y="30" width="200" height="30" as="geometry"/>
                </mxCell>
                <mxCell id="Ojdv8ZBGMiVeSCYMn6bP-108" value="PK" style="shape=partialRectangle;overflow=hidden;connectable=0;fillColor=none;top=0;left=0;bottom=0;right=0;fontStyle=1;strokeColor=#788AA3;fontColor=#46495D;rounded=1;" parent="Ojdv8ZBGMiVeSCYMn6bP-107" vertex="1">
                    <mxGeometry width="30" height="30" as="geometry">
                        <mxRectangle width="30" height="30" as="alternateBounds"/>
                    </mxGeometry>
                </mxCell>
                <mxCell id="Ojdv8ZBGMiVeSCYMn6bP-109" value="ID_EXTRAS" style="shape=partialRectangle;overflow=hidden;connectable=0;fillColor=none;top=0;left=0;bottom=0;right=0;align=left;spacingLeft=6;fontStyle=5;strokeColor=#788AA3;fontColor=#46495D;rounded=1;" parent="Ojdv8ZBGMiVeSCYMn6bP-107" vertex="1">
                    <mxGeometry x="30" width="170" height="30" as="geometry">
                        <mxRectangle width="170" height="30" as="alternateBounds"/>
                    </mxGeometry>
                </mxCell>
                <mxCell id="Ojdv8ZBGMiVeSCYMn6bP-110" value="" style="shape=partialRectangle;collapsible=0;dropTarget=0;pointerEvents=0;fillColor=none;points=[[0,0.5],[1,0.5]];portConstraint=eastwest;top=0;left=0;right=0;bottom=0;strokeColor=#788AA3;fontColor=#46495D;rounded=1;" parent="Ojdv8ZBGMiVeSCYMn6bP-106" vertex="1">
                    <mxGeometry y="60" width="200" height="30" as="geometry"/>
                </mxCell>
                <mxCell id="Ojdv8ZBGMiVeSCYMn6bP-111" value="" style="shape=partialRectangle;overflow=hidden;connectable=0;fillColor=none;top=0;left=0;bottom=0;right=0;strokeColor=#788AA3;fontColor=#46495D;rounded=1;" parent="Ojdv8ZBGMiVeSCYMn6bP-110" vertex="1">
                    <mxGeometry width="30" height="30" as="geometry">
                        <mxRectangle width="30" height="30" as="alternateBounds"/>
                    </mxGeometry>
                </mxCell>
                <mxCell id="Ojdv8ZBGMiVeSCYMn6bP-112" value="NOME" style="shape=partialRectangle;overflow=hidden;connectable=0;fillColor=none;top=0;left=0;bottom=0;right=0;align=left;spacingLeft=6;strokeColor=#788AA3;fontColor=#46495D;rounded=1;" parent="Ojdv8ZBGMiVeSCYMn6bP-110" vertex="1">
                    <mxGeometry x="30" width="170" height="30" as="geometry">
                        <mxRectangle width="170" height="30" as="alternateBounds"/>
                    </mxGeometry>
                </mxCell>
                <mxCell id="Ojdv8ZBGMiVeSCYMn6bP-113" value="" style="shape=partialRectangle;collapsible=0;dropTarget=0;pointerEvents=0;fillColor=none;points=[[0,0.5],[1,0.5]];portConstraint=eastwest;top=0;left=0;right=0;bottom=0;strokeColor=#788AA3;fontColor=#46495D;rounded=1;" parent="Ojdv8ZBGMiVeSCYMn6bP-106" vertex="1">
                    <mxGeometry y="90" width="200" height="30" as="geometry"/>
                </mxCell>
                <mxCell id="Ojdv8ZBGMiVeSCYMn6bP-114" value="" style="shape=partialRectangle;overflow=hidden;connectable=0;fillColor=none;top=0;left=0;bottom=0;right=0;strokeColor=#788AA3;fontColor=#46495D;rounded=1;" parent="Ojdv8ZBGMiVeSCYMn6bP-113" vertex="1">
                    <mxGeometry width="30" height="30" as="geometry">
                        <mxRectangle width="30" height="30" as="alternateBounds"/>
                    </mxGeometry>
                </mxCell>
                <mxCell id="Ojdv8ZBGMiVeSCYMn6bP-115" value="DESCRICAO" style="shape=partialRectangle;overflow=hidden;connectable=0;fillColor=none;top=0;left=0;bottom=0;right=0;align=left;spacingLeft=6;strokeColor=#788AA3;fontColor=#46495D;rounded=1;" parent="Ojdv8ZBGMiVeSCYMn6bP-113" vertex="1">
                    <mxGeometry x="30" width="170" height="30" as="geometry">
                        <mxRectangle width="170" height="30" as="alternateBounds"/>
                    </mxGeometry>
                </mxCell>
                <mxCell id="Ojdv8ZBGMiVeSCYMn6bP-116" value="" style="shape=partialRectangle;collapsible=0;dropTarget=0;pointerEvents=0;fillColor=none;points=[[0,0.5],[1,0.5]];portConstraint=eastwest;top=0;left=0;right=0;bottom=0;strokeColor=#788AA3;fontColor=#46495D;rounded=1;" parent="Ojdv8ZBGMiVeSCYMn6bP-106" vertex="1">
                    <mxGeometry y="120" width="200" height="30" as="geometry"/>
                </mxCell>
                <mxCell id="Ojdv8ZBGMiVeSCYMn6bP-117" value="FK" style="shape=partialRectangle;overflow=hidden;connectable=0;fillColor=none;top=0;left=0;bottom=0;right=0;strokeColor=#788AA3;fontColor=#46495D;rounded=1;" parent="Ojdv8ZBGMiVeSCYMn6bP-116" vertex="1">
                    <mxGeometry width="30" height="30" as="geometry">
                        <mxRectangle width="30" height="30" as="alternateBounds"/>
                    </mxGeometry>
                </mxCell>
                <mxCell id="Ojdv8ZBGMiVeSCYMn6bP-118" value="ID_PRATO" style="shape=partialRectangle;overflow=hidden;connectable=0;fillColor=none;top=0;left=0;bottom=0;right=0;align=left;spacingLeft=6;strokeColor=#788AA3;fontColor=#46495D;rounded=1;" parent="Ojdv8ZBGMiVeSCYMn6bP-116" vertex="1">
                    <mxGeometry x="30" width="170" height="30" as="geometry">
                        <mxRectangle width="170" height="30" as="alternateBounds"/>
                    </mxGeometry>
                </mxCell>
                <mxCell id="Ojdv8ZBGMiVeSCYMn6bP-119" value="&lt;b&gt;&lt;font style=&quot;font-size: 16px&quot;&gt;GRUPO 01 - Fábio Augusto&amp;nbsp; - Gabriel Azevedo Silva - Josemar Silva - Gabriel D. V. Azevedo&lt;/font&gt;&lt;/b&gt;" style="rounded=1;whiteSpace=wrap;html=1;fillColor=#B2C9AB;strokeColor=#788AA3;fontColor=#46495D;" parent="1" vertex="1">
                    <mxGeometry x="40" y="700" width="930" height="60" as="geometry"/>
                </mxCell>
                <mxCell id="Ojdv8ZBGMiVeSCYMn6bP-120" value="" style="endArrow=classic;html=1;rounded=1;fontSize=16;exitX=1;exitY=0.5;exitDx=0;exitDy=0;entryX=0;entryY=0.5;entryDx=0;entryDy=0;strokeColor=#788AA3;fontColor=#46495D;" parent="1" source="Ojdv8ZBGMiVeSCYMn6bP-2" target="Ojdv8ZBGMiVeSCYMn6bP-36" edge="1">
                    <mxGeometry width="50" height="50" relative="1" as="geometry">
                        <mxPoint x="710" y="150" as="sourcePoint"/>
                        <mxPoint x="760" y="100" as="targetPoint"/>
                        <Array as="points">
                            <mxPoint x="670" y="375"/>
                            <mxPoint x="670" y="115"/>
                        </Array>
                    </mxGeometry>
                </mxCell>
                <mxCell id="Ojdv8ZBGMiVeSCYMn6bP-121" value="" style="endArrow=classic;html=1;rounded=1;fontSize=16;entryX=0;entryY=0.5;entryDx=0;entryDy=0;strokeColor=#788AA3;fontColor=#46495D;exitX=1;exitY=0.5;exitDx=0;exitDy=0;" parent="1" target="Ojdv8ZBGMiVeSCYMn6bP-20" edge="1" source="Ojdv8ZBGMiVeSCYMn6bP-68">
                    <mxGeometry width="50" height="50" relative="1" as="geometry">
                        <mxPoint x="180" y="370" as="sourcePoint"/>
                        <mxPoint x="230" y="320" as="targetPoint"/>
                        <Array as="points">
                            <mxPoint x="350" y="155"/>
                            <mxPoint x="350" y="555"/>
                        </Array>
                    </mxGeometry>
                </mxCell>
                <mxCell id="Ojdv8ZBGMiVeSCYMn6bP-122" value="" style="endArrow=classic;html=1;rounded=1;fontSize=16;exitX=1;exitY=0.5;exitDx=0;exitDy=0;entryX=0;entryY=0.5;entryDx=0;entryDy=0;strokeColor=#788AA3;fontColor=#46495D;" parent="1" source="Ojdv8ZBGMiVeSCYMn6bP-81" target="Ojdv8ZBGMiVeSCYMn6bP-23" edge="1">
                    <mxGeometry width="50" height="50" relative="1" as="geometry">
                        <mxPoint x="480" y="410" as="sourcePoint"/>
                        <mxPoint x="530" y="360" as="targetPoint"/>
                        <Array as="points">
                            <mxPoint x="330" y="365"/>
                            <mxPoint x="330" y="555"/>
                            <mxPoint x="330" y="585"/>
                        </Array>
                    </mxGeometry>
                </mxCell>
                <mxCell id="Ojdv8ZBGMiVeSCYMn6bP-123" value="" style="endArrow=classic;html=1;rounded=1;fontSize=16;entryX=1;entryY=0.5;entryDx=0;entryDy=0;exitX=0;exitY=0.5;exitDx=0;exitDy=0;strokeColor=#788AA3;fontColor=#46495D;" parent="1" source="Ojdv8ZBGMiVeSCYMn6bP-103" target="Ojdv8ZBGMiVeSCYMn6bP-29" edge="1">
                    <mxGeometry width="50" height="50" relative="1" as="geometry">
                        <mxPoint x="700" y="560" as="sourcePoint"/>
                        <mxPoint x="530" y="430" as="targetPoint"/>
                        <Array as="points">
                            <mxPoint x="720" y="615"/>
                            <mxPoint x="720" y="645"/>
                            <mxPoint x="650" y="645"/>
                        </Array>
                    </mxGeometry>
                </mxCell>
                <mxCell id="Ojdv8ZBGMiVeSCYMn6bP-124" value="" style="endArrow=classic;html=1;rounded=1;fontSize=16;entryX=1;entryY=0.5;entryDx=0;entryDy=0;exitX=0;exitY=0.5;exitDx=0;exitDy=0;strokeColor=#788AA3;fontColor=#46495D;" parent="1" source="Ojdv8ZBGMiVeSCYMn6bP-107" target="Ojdv8ZBGMiVeSCYMn6bP-26" edge="1">
                    <mxGeometry width="50" height="50" relative="1" as="geometry">
                        <mxPoint x="480" y="480" as="sourcePoint"/>
                        <mxPoint x="530" y="430" as="targetPoint"/>
                        <Array as="points">
                            <mxPoint x="710" y="345"/>
                            <mxPoint x="710" y="615"/>
                        </Array>
                    </mxGeometry>
                </mxCell>
                <mxCell id="Ojdv8ZBGMiVeSCYMn6bP-125" value="" style="endArrow=classic;html=1;rounded=1;fontSize=16;exitX=0;exitY=0.5;exitDx=0;exitDy=0;entryX=0;entryY=0.5;entryDx=0;entryDy=0;strokeColor=#788AA3;fontColor=#46495D;" parent="1" source="Ojdv8ZBGMiVeSCYMn6bP-49" target="Ojdv8ZBGMiVeSCYMn6bP-17" edge="1">
                    <mxGeometry width="50" height="50" relative="1" as="geometry">
                        <mxPoint x="310" y="175" as="sourcePoint"/>
                        <mxPoint x="360" y="125" as="targetPoint"/>
                        <Array as="points">
                            <mxPoint x="380" y="85"/>
                            <mxPoint x="380" y="525"/>
                        </Array>
                    </mxGeometry>
                </mxCell>
                <mxCell id="2" value="Caso Restaurante" style="text;strokeColor=none;fillColor=none;html=1;fontSize=24;fontStyle=1;verticalAlign=middle;align=center;" vertex="1" parent="1">
                    <mxGeometry x="20" y="40" width="340" height="40" as="geometry"/>
                </mxCell>
            </root>
        </mxGraphModel>
    </diagram>
</mxfile>